PathFileType	4	(X/Y/Z)	C:/Users/beibeiliu/ov580/test_trc/capture2\sequence.38_training_dense_left.trc
DataRate	CameraRate	NumFrames	NumMarkers	Units	OrigDataRate	OrigDataStartFrame	OrigNumFrames
120	120	11	19	mm	120	301	400
Frame#	Time	ThumbCMC			ThumbMCP			ThumbIP			ThumbTip			IndexMCP			IndexPIP			IndexTip			MiddleMCP			MiddlePIP			MiddleTip			RingMCP			RingPIP			RingTip			PinkyMCP			PinkyPIP			PinkyTip			BackHand1			BackHand2			BackHand3	
		X0	Y0	Z0	X1	Y1	Z1	X2	Y2	Z2	X3	Y3	Z3	X4	Y4	Z4	X5	Y5	Z5	X6	Y6	Z6	X7	Y7	Z7	X8	Y8	Z8	X9	Y9	Z9	X10	Y10	Z10	X11	Y11	Z11	X12	Y12	Z12	X13	Y13	Z13	X14	Y14	Z14	X15	Y15	Z15	X16	Y16	Z16	X17	Y17	Z17	X18	Y18	Z18	
300	2.5	-193.358	20.6099	22.2491	-174.015	41.0871	-2.73344	-161.917	48.9284	-23.7583	-145.788	51.0313	-44.864	-185.857	-8.92452	-50.3209	-179.756	1.9418	-75.5389	-156.908	15.7589	-89.6778	-163.927	-20.0919	-51.6447	-149.263	-4.73766	-74.2139	-133.201	24.2129	-75.4432	-148.736	-30.2578	-43.0277	-136.176	-21.4876	-64.6605	-118.447	3.15535	-82.1175	-130.158	-34.8218	-26.8034	-117.15	-33.0323	-44.0597	-103.846	-28.047	-64.8684	-166.876	-33.9449	8.70939	-175.032	-36.2888	32.9948	-193.174	-21.8342	14.6427	
301	2.50833	-191.593	18.8879	18.8138	-173.883	41.0985	-3.95785	-161.636	51.4476	-23.9244	-146.805	48.2256	-42.6978	-186.607	-8.3859	-46.9782	-178.769	0.418244	-74.3607	-160.624	19.1246	-89.8818	-165.639	-19.446	-48.6292	-146.178	-0.710753	-73.3643	-129.687	25.8917	-69.3352	-151.587	-27.5168	-41.2108	-132.71	-20.9008	-66.0127	-122.061	7.27344	-81.4674	-130.546	-35.6499	-25.493	-116.682	-32.6726	-45.3985	-104.149	-27.7786	-66.4196	-163.935	-36.2297	9.49563	-172.67	-37.823	34.9616	-196.881	-21.3817	14.1795	
302	2.51667	-193.413	20.8179	19.3899	-174.134	42.1547	-4.15903	-162.509	48.6192	-23.0297	-143.24	44.3594	-47.2028	-191.033	-6.85916	-47.9367	-179.678	-0.2265	-74.7569	-157.829	21.3366	-89.6	-164.592	-18.5807	-52.1203	-147.862	1.33325	-72.7416	-134.419	29.2497	-67.2113	-150.318	-28.8127	-45.1832	-132.151	-20.1087	-65.1553	-120.071	9.71183	-78.6191	-132.336	-34.4681	-26.6253	-119.24	-32.3199	-47.3912	-103.102	-27.2646	-67.3548	-165.964	-36.7326	9.28241	-170.082	-37.9114	36.068	-196.961	-19.7042	17.2257	
303	2.525	-191.709	19.3027	21.0548	-174.888	41.518	-3.34552	-161.734	46.2894	-23.8267	-144.863	44.3243	-45.7047	-187.432	-9.25182	-47.308	-174.733	0.840301	-75.6437	-157.516	19.7897	-87.0702	-165.59	-17.931	-54.8791	-146.143	1.95398	-71.0332	-135.705	33.3149	-61.4326	-148.561	-29.3078	-40.7763	-136.841	-17.4609	-65.7158	-121.256	9.60014	-75.5274	-134.679	-33.7446	-26.0495	-115.591	-32.9653	-48.2676	-103.673	-27.7668	-65.5654	-165.884	-36.9771	5.72456	-170.694	-39.8696	33.7894	-195.737	-21.0714	17.0968	
304	2.53333	-190.9	18.4441	20.0475	-174.046	42.1086	-1.95079	-161.173	44.2376	-25.8017	-144.028	37.6145	-45.2804	-187.662	-7.37189	-47.8099	-174.727	2.39741	-74.9621	-154.373	21.2885	-84.2029	-164.054	-18.3825	-50.6678	-147.871	-2.05329	-69.9168	-132.098	31.2816	-58.8596	-149.888	-28.1707	-44.8704	-135.987	-14.0521	-67.7634	-121.744	8.22985	-73.4125	-132.317	-34.8228	-27.189	-118.783	-31.7761	-47.5966	-103.479	-27.7722	-67.6327	-169.366	-36.7678	9.80667	-173.997	-34.8412	34.4784	-198.72	-19.2504	15.5291	
305	2.54167	-192.175	18.4567	18.4814	-173.366	37.5745	-0.288679	-161.847	46.7342	-27.059	-143.633	39.5305	-46.3226	-190.187	-5.30324	-51.4572	-175.818	1.60138	-74.606	-153.192	26.3127	-82.5808	-165.566	-18.844	-48.6216	-149.807	-0.426866	-70.5128	-135.509	32.882	-59.3044	-149.201	-28.7714	-42.4082	-132.405	-18.0427	-64.2198	-122.885	11.7375	-72.0911	-132.043	-35.6226	-22.5859	-117.91	-33.6811	-46.2678	-103.128	-25.9012	-68.8928	-167.135	-36.1937	9.08674	-171.984	-39.3896	33.3526	-197.141	-20.8219	17.6722	
306	2.55	-191.693	18.8731	21.9451	-171.973	37.1745	-1.78322	-160.207	45.2787	-28.8314	-144.664	40.8883	-45.6932	-186.848	-7.13894	-49.4975	-172.132	4.14611	-74.9057	-152.699	25.4624	-79.7557	-166.028	-18.2921	-50.5589	-148.303	0.0171805	-70.3683	-134.493	33.2893	-57.9723	-148.042	-29.0536	-44.1078	-133.149	-12.2805	-66.9423	-119.6	11.3713	-70.5976	-135.34	-34.2122	-24.9766	-118.574	-31.8895	-47.5634	-102.337	-26.2201	-66.2196	-168.451	-36.3485	6.84821	-173.189	-38	34.2744	-195.192	-22.585	16.3453	
307	2.55833	-194.506	22.0736	20.8799	-174.179	43.2612	-0.742003	-160.569	45.9674	-25.7646	-143.598	38.8602	-46.1453	-189.556	-6.60694	-49.1492	-173.57	2.59304	-74.1784	-152.87	22.4954	-79.9255	-165.208	-18.2147	-50.7423	-146.017	1.72422	-71.7785	-133.406	30.4945	-60.3948	-151.797	-27.3668	-44.9802	-135.626	-13.5639	-66.4952	-119.002	9.96296	-71.0325	-132.671	-35.0928	-26.189	-119.707	-32.8194	-45.9269	-102.448	-25.2622	-68.675	-166.93	-35.8502	8.79009	-174.697	-36.0962	33.0513	-199.185	-19.6953	16.1889	
308	2.56667	-191.734	20.3251	18.1749	-174.202	42.1566	-0.247257	-161.35	50.1359	-26.1012	-144.488	42.534	-44.2253	-190.785	-5.37396	-48.9984	-178.284	4.52286	-76.9162	-155.737	22.6439	-82.6131	-168.786	-19.5558	-50.1043	-152.103	-2.22806	-72.8725	-133.088	25.4416	-67.2639	-149.938	-28.9414	-44.333	-134.489	-17.8111	-66.0651	-124.097	8.16604	-74.021	-132.891	-34.6515	-22.7459	-117.163	-31.8027	-47.3914	-104.828	-28.2486	-66.3603	-170.092	-34.3614	8.19218	-172.074	-36.0301	35.0998	-195.132	-20.2254	15.3435	
309	2.575	-192.313	21.7947	16.8829	-172.555	39.1976	-2.26659	-159.773	47.8851	-28.2678	-142.07	39.6294	-48.27	-192.011	-5.23924	-47.7875	-177.256	2.02889	-75.6439	-158.271	22.5413	-86.4688	-172.636	-18.3842	-51.6646	-157.707	-5.65094	-75.4562	-134.441	21.7989	-74.3264	-151.424	-29.1129	-41.3733	-138.979	-16.5193	-67.739	-121.604	10.2581	-77.6708	-136.394	-32.5153	-28.2807	-121.262	-30.9074	-48.1107	-107.434	-24.3345	-70.8689	-167.292	-36.9519	7.3323	-173.274	-34.2835	37.204	-196.064	-20.2983	12.6391	
310	2.58333	-192.265	21.5713	16.736	-173.083	42.768	-4.09667	-159.753	46.6811	-24.88	-142.709	43.308	-45.5192	-193.136	-4.62778	-49.1494	-178.305	1.05248	-75.9537	-157.439	19.57	-86.9424	-172.764	-19.8795	-51.9552	-156.379	-10.618	-77.571	-136.628	18.464	-84.5744	-152.313	-28.978	-42.3501	-139.322	-18.9175	-68.6082	-120.18	6.0485	-80.0023	-135.07	-32.8569	-28.5988	-119.463	-29.5457	-50.0848	-108.641	-23.067	-70.2106	-165.843	-36.4654	6.92377	-175.596	-33.2305	33.1483	-196.97	-16.8801	16.5669	
